<?xml version="1.0" standalone="no"?>
<!DOCTYPE svg PUBLIC "-//W3C//DTD SVG 20010904//EN"
 "http://www.w3.org/TR/2001/REC-SVG-20010904/DTD/svg10.dtd">
<svg version="1.0" xmlns="http://www.w3.org/2000/svg"
 width="1230.000000pt" height="1230.000000pt" viewBox="0 0 1230.000000 1230.000000"
 preserveAspectRatio="xMidYMid meet">
<metadata>
Created by potrace 1.14, written by Peter Selinger 2001-2017
</metadata>
<g transform="translate(0.000000,1230.000000) scale(0.100000,-0.100000)"
fill="#000000" stroke="none">
<path d="M5718 10375 c-2 -2 -50 -6 -108 -9 -223 -13 -454 -49 -700 -111 -135
-34 -318 -88 -355 -106 -11 -5 -45 -17 -75 -28 -128 -43 -438 -196 -588 -289
-355 -220 -657 -505 -865 -815 -73 -109 -71 -106 -140 -242 -103 -204 -166
-404 -191 -600 -3 -22 -8 -63 -11 -92 -4 -29 -7 -96 -7 -150 -2 -560 266
-1100 766 -1541 65 -57 64 -56 86 -42 13 9 11 14 -10 31 -43 35 -143 133 -190
185 -87 96 -105 120 -178 229 -173 258 -275 544 -298 835 -12 148 -12 162 11
325 19 142 72 305 152 471 52 109 169 295 228 363 76 88 113 129 155 171 62
63 194 179 260 229 30 22 60 45 66 50 6 4 37 26 70 47 32 22 65 45 72 52 7 6
17 12 22 12 5 0 28 13 52 29 74 50 307 168 457 231 222 94 580 207 771 244 14
3 36 7 50 10 14 3 41 9 60 12 19 4 44 8 55 10 71 13 136 24 175 29 25 3 56 8
70 10 64 9 157 18 330 30 237 18 664 4 965 -30 17 -2 57 -6 90 -10 33 -3 69
-8 81 -10 12 -3 39 -7 60 -10 82 -12 262 -47 319 -62 58 -14 72 -18 114 -27
10 -2 51 -14 92 -26 546 -159 958 -419 1216 -767 69 -93 78 -108 146 -243 93
-186 147 -373 175 -610 9 -78 8 -374 -2 -440 -57 -391 -277 -788 -613 -1110
-360 -344 -838 -593 -1403 -730 -134 -32 -386 -77 -485 -86 -33 -3 -71 -7 -85
-10 -152 -26 -740 -26 -890 0 -14 2 -59 10 -100 16 -134 21 -385 92 -490 138
-305 133 -503 274 -669 477 -210 256 -299 552 -267 890 4 44 10 83 12 86 2 4
6 24 10 45 26 169 156 412 295 554 192 196 470 333 769 379 128 20 161 23 287
23 178 1 272 -11 481 -59 62 -14 111 -27 110 -28 -2 -2 -32 0 -67 4 -69 8
-257 6 -331 -4 -96 -13 -117 -16 -195 -31 -158 -31 -368 -112 -487 -189 -35
-22 -48 -37 -48 -55 -2 -28 -2 -1143 -1 -1175 1 -20 8 -20 514 -20 l512 0 2
590 c2 325 3 634 3 688 l0 99 41 -7 c106 -18 353 -119 433 -178 17 -12 18 -46
19 -603 l2 -589 100 -1 c55 -1 104 -2 109 -3 15 -2 -93 -98 -164 -146 -87 -58
-251 -133 -330 -150 -8 -2 -35 -8 -60 -13 -104 -24 -235 -32 -335 -21 -37 4
-40 2 -40 -21 0 -19 6 -24 30 -27 48 -4 327 -2 360 2 17 2 54 6 83 10 223 24
476 124 614 242 196 168 298 387 300 643 2 152 -20 262 -80 391 -85 189 -262
367 -482 486 -91 49 -251 112 -355 139 -68 18 -196 44 -217 44 -26 0 -28 3
-28 38 -1 20 -1 225 -1 455 l0 417 -32 1 c-160 4 -989 1 -994 -4 -3 -4 -7
-210 -7 -459 l-1 -452 -140 -37 c-256 -67 -476 -161 -656 -282 -118 -79 -124
-84 -224 -185 -262 -263 -351 -581 -264 -940 88 -361 369 -681 826 -940 308
-176 758 -328 1141 -386 74 -12 119 -19 135 -22 10 -2 53 -6 95 -10 42 -3 86
-8 97 -11 36 -8 537 -10 645 -2 174 13 244 19 270 23 14 2 52 7 85 10 75 8
116 14 180 26 28 6 68 12 90 16 63 9 259 53 380 85 241 65 529 174 740 282 84
43 275 153 310 179 6 4 48 36 95 69 449 325 747 782 804 1234 4 28 9 66 11 85
8 54 8 227 0 305 -37 402 -243 835 -560 1174 -125 134 -264 263 -381 351 -32
25 -65 50 -71 57 -31 28 -291 198 -404 262 -364 209 -834 398 -1219 491 -25 6
-52 12 -61 14 -47 12 -209 46 -239 51 -19 3 -57 10 -85 15 -27 5 -75 12 -105
16 -30 3 -63 8 -73 10 -10 2 -48 6 -85 9 -37 4 -80 9 -97 12 -32 5 -512 13
-517 8z"/>
<path d="M6492 9319 c-16 -6 -17 -45 -16 -505 1 -275 2 -502 3 -505 1 -3 27
-13 59 -23 195 -61 419 -198 550 -336 268 -282 326 -714 141 -1041 -22 -38
-39 -70 -39 -71 0 -3 298 -2 311 1 8 2 5 2468 -3 2477 -9 9 -982 12 -1006 3z"/>
<path d="M4454 5105 c-2 -5 -2 -37 -1 -70 l2 -60 165 0 165 -1 0 -1429 0
-1430 -155 -1 c-85 -1 -160 -2 -166 -3 -8 -1 -12 -26 -12 -71 l0 -70 624 0
c343 0 624 3 625 8 1 4 2 35 3 69 3 73 16 69 -176 68 l-138 -1 0 1501 0 1501
-466 0 c-308 0 -468 -4 -470 -11z"/>
<path d="M6142 4745 c-3 -5 -6 -183 -6 -395 l-1 -385 -160 0 -160 0 -3 -67
c-2 -51 0 -68 10 -70 7 -1 74 -2 148 -4 74 -1 142 -2 151 -3 14 -1 16 -71 15
-723 -1 -754 1 -796 43 -891 42 -97 167 -189 296 -218 65 -15 687 -22 695 -9
5 8 5 102 1 130 -1 3 -107 5 -236 5 l-235 -1 0 853 0 853 23 1 c12 1 116 2
232 3 l210 1 1 60 c0 33 -3 65 -7 70 -5 7 -91 10 -233 10 l-226 0 0 392 c0
307 -3 393 -12 394 -86 6 -541 2 -546 -6z"/>
<path d="M9 4748 c0 -2 -2 -33 -2 -71 l-2 -67 170 0 170 0 -1 -1242 c-1 -684
-2 -1246 -3 -1249 -1 -3 -75 -5 -166 -5 -91 1 -165 -1 -166 -4 0 -3 -2 -35 -2
-73 l-2 -67 663 0 c364 0 663 3 663 8 1 4 2 35 3 69 1 48 -2 63 -14 65 -8 2
-90 3 -182 3 -146 -1 -168 1 -169 14 -3 49 -4 1179 -1 1193 4 16 39 17 481 15
l476 -2 3 -611 2 -610 -167 1 c-93 0 -174 -1 -181 -3 -8 -3 -12 -27 -12 -73
l0 -69 658 0 658 0 0 68 c0 37 -3 69 -7 72 -4 3 -80 5 -168 4 -156 -1 -161 0
-162 20 -1 27 -1 2447 0 2464 1 9 42 12 169 12 l168 0 0 70 -1 70 -657 0 -658
0 0 -70 0 -70 180 0 180 0 0 -553 0 -553 -482 0 -483 0 2 545 c0 300 1 549 2
554 1 4 83 7 184 7 l183 0 0 70 0 70 -663 0 c-365 0 -663 -1 -664 -2z"/>
<path d="M3395 4588 l0 -163 302 -2 301 -1 1 164 0 164 -302 0 -302 0 0 -162z"/>
<path d="M11225 4028 c-134 -11 -325 -73 -430 -140 -61 -39 -155 -126 -213
-197 l-19 -25 0 143 c0 78 -4 145 -8 149 -3 4 -211 7 -461 7 l-455 0 3 -70 3
-70 155 -2 c85 -1 157 -2 160 -2 4 -1 5 -1633 1 -1691 -1 -14 -24 -16 -158
-16 l-158 1 -3 -72 -3 -71 610 0 c452 0 611 3 614 11 2 7 3 39 2 72 l-1 60
-150 0 -149 0 -1 590 c-1 664 0 685 73 813 93 167 289 294 453 293 109 0 186
-44 230 -131 46 -91 49 -132 50 -870 l0 -696 -130 1 c-79 0 -130 -4 -131 -10
-4 -32 -5 -112 -1 -122 3 -9 148 -11 595 -10 l591 2 -1 60 c-1 33 -2 65 -2 70
-1 7 -56 10 -156 10 l-155 -1 -1 650 c0 643 -2 747 -14 816 -25 147 -104 269
-224 345 -89 55 -241 100 -360 104 -30 1 -57 3 -60 5 -3 1 -46 -1 -96 -6z"/>
<path d="M8245 4022 c-141 -15 -312 -66 -446 -134 -360 -181 -555 -485 -564
-880 -10 -454 250 -840 675 -1003 54 -21 170 -53 215 -60 23 -3 52 -8 65 -11
56 -13 318 -11 405 3 172 27 334 87 460 171 72 48 222 190 267 252 71 100 132
238 159 365 21 97 16 341 -9 461 -93 437 -423 743 -892 826 -62 11 -271 17
-335 10z m266 -142 c177 -48 291 -195 314 -405 19 -165 26 -703 12 -865 -16
-188 -65 -348 -134 -435 -142 -181 -496 -183 -657 -4 -117 130 -148 301 -149
814 0 302 7 387 44 544 49 212 167 334 344 358 22 3 41 6 43 8 7 6 144 -5 183
-15z"/>
<path d="M3099 3955 c-3 -29 2 -119 7 -124 3 -3 69 -7 147 -8 78 0 149 -2 157
-2 13 -1 15 -101 14 -846 -1 -465 -5 -849 -9 -853 -3 -4 -70 -8 -148 -8 -78
-1 -149 -2 -157 -3 -12 -1 -14 -14 -12 -71 l4 -70 609 0 c573 0 609 1 610 18
3 59 1 113 -5 120 -4 4 -71 7 -149 7 l-142 0 -2 670 c-2 369 -3 785 -3 925 l0
255 -460 0 c-301 0 -460 -3 -461 -10z"/>
</g>
</svg>
